<svg width="48" height="48" viewBox="0 0 48 48" fill="none" xmlns="http://www.w3.org/2000/svg">
<path d="M26.5536 26.976H26.592C26.6112 26.976 26.6496 26.976 26.6688 26.976C26.6304 26.976 26.592 26.976 26.5536 26.976ZM26.5536 26.976H26.592C26.6112 26.976 26.6496 26.976 26.6688 26.976C26.6304 26.976 26.592 26.976 26.5536 26.976ZM26.5536 26.976H26.592C26.6112 26.976 26.6496 26.976 26.6688 26.976C26.6304 26.976 26.592 26.976 26.5536 26.976ZM26.5536 26.976H26.592C26.6112 26.976 26.6496 26.976 26.6688 26.976C26.6304 26.976 26.592 26.976 26.5536 26.976ZM24 0C10.752 0 0 10.752 0 24C0 37.248 10.752 48 24 48C37.248 48 48 37.248 48 24C48 10.752 37.248 0 24 0ZM6.1056 23.232C6.2016 20.8128 6.7776 18.4896 7.8144 16.32C8.064 15.8016 8.3328 15.3024 8.6208 14.8224C9.3696 13.5552 10.272 12.384 11.328 11.328C14.7072 7.9488 19.2 6.0864 24 6.0864C28.7616 6.0864 33.216 7.9296 36.5952 11.2512C36.5568 11.232 36.5376 11.2128 36.5376 11.2128L32.7552 9.0624L35.8464 12.1536C36.0384 12.3456 36.2304 12.5376 36.4032 12.7296C35.5776 14.2848 34.5216 15.7056 33.2544 16.9728C30.2016 20.0064 26.1696 21.8688 21.888 22.176H21.8688C21.7152 22.176 21.5808 22.1952 21.4272 22.1952C19.3728 22.3488 17.3952 22.848 15.552 23.7312C13.7856 24.5568 12.192 25.6704 10.8096 27.072C9.888 27.9936 9.0816 29.0112 8.4096 30.0864C8.3712 30.0096 8.3328 29.9136 8.3136 29.8176L7.8912 28.6656L7.2576 29.7216C7.2192 29.7984 7.1616 29.8752 7.1232 29.9712C6.336 27.8016 5.9904 25.536 6.1056 23.232ZM41.8944 24.768C41.7984 27.1872 41.2224 29.5104 40.1856 31.68C39.936 32.1984 39.6672 32.6976 39.3792 33.1776C38.6304 34.4448 37.7088 35.616 36.6528 36.672C33.2736 40.0512 28.7808 41.9136 23.9808 41.9136C19.2192 41.9136 14.7648 40.0704 11.3856 36.7488C11.424 36.768 11.4432 36.7872 11.4432 36.7872L15.2256 38.9376L12.1344 35.8464C11.9424 35.6544 11.7504 35.4624 11.5776 35.2704C12.4032 33.7152 13.4592 32.2944 14.7264 31.0272C17.7792 27.9744 21.8112 26.1312 26.0928 25.824C26.0928 25.824 26.0928 25.824 26.112 25.824C26.208 25.824 26.304 25.824 26.4 25.8048H26.5728H26.6688C28.6656 25.6512 30.6048 25.1328 32.4288 24.288C34.1952 23.4624 35.7888 22.3488 37.1712 20.9472C38.0928 20.0256 38.8992 19.008 39.5712 17.9328C39.6096 18.0096 39.648 18.1056 39.6672 18.2016L40.0896 19.3536L40.7232 18.2976C40.7616 18.2208 40.8192 18.144 40.8576 18.048C41.664 20.1984 42.0096 22.464 41.8944 24.768ZM26.592 26.976C26.6112 26.976 26.6496 26.976 26.6688 26.976C26.6304 26.976 26.592 26.976 26.5536 26.976H26.592ZM26.5536 26.976H26.592C26.6112 26.976 26.6496 26.976 26.6688 26.976C26.6304 26.976 26.592 26.976 26.5536 26.976ZM26.5536 26.976H26.592C26.6112 26.976 26.6496 26.976 26.6688 26.976C26.6304 26.976 26.592 26.976 26.5536 26.976Z" fill="#FEBC11"/>
<path d="M42.221 10.6944C41.0498 11.5776 39.7442 11.9232 38.3426 11.7696C37.4402 11.6544 36.7874 11.3664 36.5954 11.2512C36.557 11.232 36.5378 11.2128 36.5378 11.2128L32.7554 9.06238L35.8466 12.1536C36.0386 12.3456 36.2306 12.5376 36.4034 12.7296C37.7858 14.2464 38.861 15.9936 39.6098 17.8944C39.6482 17.9712 39.6866 18.0672 39.7058 18.1632L40.1282 19.3152L40.7618 18.2592C40.8002 18.1824 40.8578 18.1056 40.8962 18.0096C42.1058 15.9168 42.8546 13.632 43.1426 11.2128L43.3154 9.84958L42.221 10.6944ZM40.3394 16.608C39.7442 15.2832 38.9954 14.0544 38.093 12.9024C38.1122 12.9024 38.1314 12.9024 38.1506 12.9216C39.0914 13.0368 40.397 13.0176 41.7986 12.3264C41.5106 13.824 41.0114 15.264 40.3394 16.608Z" fill="white"/>
<path d="M41.7984 12.3264C41.5104 13.824 41.0112 15.264 40.3392 16.608C39.744 15.2832 38.9952 14.0544 38.0928 12.9024C38.112 12.9024 38.1312 12.9024 38.1696 12.9024C39.0912 13.0368 40.3968 13.0176 41.7984 12.3264Z" fill="#9D22C1"/>
<path d="M12.1535 35.8464C11.9615 35.6544 11.7695 35.4624 11.5967 35.2704C10.2143 33.7536 9.13913 32.0064 8.39033 30.1056C8.35193 30.0288 8.31353 29.9328 8.29433 29.8368L7.87193 28.6848L7.23833 29.7408C7.19993 29.8176 7.14233 29.8944 7.10393 29.9904C5.89433 32.0832 5.14553 34.368 4.83833 36.7872L4.66553 38.1504L5.75993 37.3248C6.93113 36.4416 8.23673 36.096 9.63833 36.2496C10.5407 36.3648 11.1935 36.6528 11.3855 36.7488C11.4239 36.768 11.4431 36.7872 11.4431 36.7872L15.2255 38.9376L12.1535 35.8464ZM9.84953 35.0784C8.90873 34.9632 7.60313 34.9824 6.20153 35.6736C6.48953 34.176 6.98873 32.736 7.66073 31.392C8.25593 32.7168 9.00473 33.9456 9.90713 35.0976C9.90713 35.0784 9.86873 35.0784 9.84953 35.0784Z" fill="white"/>
<path d="M7.66053 31.392C8.25573 32.7168 9.00453 33.9456 9.90693 35.0976C9.88773 35.0976 9.86853 35.0976 9.83013 35.0976C8.88933 34.9824 7.58373 35.0016 6.18213 35.6928C6.48933 34.176 6.98853 32.736 7.66053 31.392Z" fill="#196EC2"/>
<path d="M26.5536 26.976H26.592C26.6112 26.976 26.6496 26.976 26.6688 26.976C26.6304 26.976 26.592 26.976 26.5536 26.976ZM40.8 17.76L40.3776 16.608L39.744 17.664C39.7056 17.7408 39.648 17.8176 39.5904 17.9136C39.6288 17.9904 39.6672 18.0864 39.6864 18.1824L40.1088 19.3344L40.7424 18.2784C40.7808 18.2016 40.8384 18.1248 40.8768 18.0288C40.8768 17.9328 40.8384 17.856 40.8 17.76ZM26.5536 26.976H26.592C26.6112 26.976 26.6496 26.976 26.6688 26.976C26.6304 26.976 26.592 26.976 26.5536 26.976ZM12.1536 35.8464C11.9616 35.6544 11.7696 35.4624 11.5968 35.2704C11.4624 35.52 11.3472 35.7696 11.2128 36.0192L11.04 36.384L11.328 36.672C11.3472 36.6912 11.3664 36.7104 11.3856 36.7296C11.424 36.7488 11.4432 36.768 11.4432 36.768L15.2256 38.9184L12.1536 35.8464ZM26.5536 26.976H26.592C26.6112 26.976 26.6496 26.976 26.6688 26.976C26.6304 26.976 26.592 26.976 26.5536 26.976ZM26.5536 26.976H26.592C26.6112 26.976 26.6496 26.976 26.6688 26.976C26.6304 26.976 26.592 26.976 26.5536 26.976Z" fill="white"/>
<path d="M40.8958 18.0288C40.8574 18.1056 40.7998 18.1824 40.7614 18.2784L40.1278 19.3344L39.7054 18.1824C39.667 18.0864 39.6478 18.0096 39.6094 17.9136C38.9374 19.008 38.131 20.0256 37.2094 20.928C35.827 22.3104 34.2142 23.4432 32.467 24.2688C30.643 25.1136 28.723 25.632 26.707 25.7856H26.611H26.4382C26.3422 25.7856 26.2462 25.8048 26.1502 25.8048C26.1502 25.8048 26.1502 25.8048 26.131 25.8048C21.8494 26.112 17.7982 27.9552 14.7646 31.008C13.4974 32.2752 12.4414 33.696 11.6158 35.2512C11.7886 35.4432 11.9806 35.6352 12.1726 35.8272L15.2638 38.9184L11.4814 36.768C11.4814 36.768 11.4622 36.7488 11.4238 36.7296C14.803 40.0704 19.2766 41.9136 24.019 41.8944C28.7998 41.8944 33.2926 40.032 36.691 36.6528C37.747 35.5968 38.6494 34.4256 39.4174 33.1584C39.7054 32.6784 39.9742 32.16 40.2238 31.6608C41.2606 29.4912 41.8174 27.168 41.9326 24.7488C42.0094 22.464 41.6638 20.1984 40.8958 18.0288ZM39.1294 31.1808C38.899 31.6608 38.6494 32.1216 38.3806 32.5824C37.6702 33.7728 36.8254 34.8672 35.827 35.8464C33.3118 38.3616 30.163 39.9744 26.7262 40.5312C26.2846 40.608 25.843 40.6656 25.4014 40.704C24.9406 40.7424 24.4606 40.7616 23.9806 40.7616C19.6414 40.7616 15.571 39.1296 12.4414 36.1536C13.2478 34.5792 14.2846 33.12 15.5518 31.872C17.7982 29.6256 20.6014 28.0896 23.6542 27.3792C24.0766 27.2832 24.499 27.2064 24.9406 27.1296C25.3438 27.072 25.747 27.0336 26.1502 26.9952C26.1886 26.9952 26.227 26.9952 26.2654 26.9952C26.3422 26.9952 26.4382 26.976 26.515 26.976C26.5534 26.976 26.5918 26.976 26.6302 26.976L27.1678 26.9376C28.1662 26.8416 29.1454 26.6496 30.1054 26.3808C31.0654 26.112 32.0062 25.7664 32.9086 25.344C34.7902 24.4608 36.499 23.2704 37.9966 21.7728C38.7454 21.024 39.4366 20.1984 40.051 19.3344C41.2222 23.232 40.8766 27.4944 39.1294 31.1808Z" fill="white"/>
<path d="M39.1294 31.1808C38.899 31.6608 38.6494 32.1216 38.3806 32.5824C37.6702 33.7728 36.8254 34.8672 35.827 35.8464C33.3118 38.3616 30.163 39.9744 26.7262 40.5312C26.2846 40.608 25.843 40.6656 25.4014 40.704C24.9406 40.7424 24.4606 40.7616 23.9806 40.7616C19.6414 40.7616 15.571 39.1296 12.4414 36.1536C13.2478 34.5792 14.2846 33.12 15.5518 31.872C17.7982 29.6256 20.6014 28.0896 23.6542 27.3792C24.0766 27.2832 24.499 27.2064 24.9406 27.1296C25.3438 27.072 25.747 27.0336 26.1502 26.9952C26.1886 26.9952 26.227 26.9952 26.2654 26.9952C26.3422 26.9952 26.4382 26.976 26.515 26.976H26.5534C26.5726 26.976 26.611 26.976 26.6302 26.976L27.1678 26.9376C28.1662 26.8416 29.1454 26.6496 30.1054 26.3808C31.0654 26.112 32.0062 25.7664 32.9086 25.344C34.7902 24.4608 36.499 23.2704 37.9966 21.7728C38.7454 21.024 39.4366 20.1984 40.051 19.3344C41.2222 23.232 40.8766 27.4944 39.1294 31.1808Z" fill="#9D22C1"/>
<path d="M36.6528 11.328C36.6336 11.3088 36.6144 11.2896 36.5952 11.2704C36.5568 11.2512 36.5376 11.232 36.5376 11.232L32.7552 9.0816L35.8464 12.1728C36.0384 12.3648 36.2304 12.5568 36.4032 12.7488C36.5376 12.4992 36.672 12.2496 36.7872 12L36.96 11.6352L36.6528 11.328ZM8.2944 29.8368L7.872 28.6848L7.2384 29.7408C7.2 29.8176 7.1424 29.8944 7.104 29.9904C7.1424 30.0864 7.1616 30.1632 7.2 30.2592L7.6224 31.4112L8.256 30.336C8.3136 30.2592 8.352 30.1824 8.4096 30.1056C8.3712 30.0096 8.3328 29.9136 8.2944 29.8368Z" fill="white"/>
<path d="M36.595 11.2512C33.2158 7.91039 28.7422 6.06719 23.9998 6.08639C19.219 6.08639 14.7262 7.94879 11.3278 11.328C10.2718 12.384 9.36936 13.5552 8.60136 14.8224C8.31336 15.3024 8.04456 15.8208 7.79496 16.32C6.75816 18.4896 6.18216 20.8128 6.08616 23.232C5.99016 25.536 6.31656 27.8016 7.08456 29.9712C7.12296 29.8944 7.18056 29.8176 7.21896 29.7216L7.85256 28.6656L8.27496 29.8176C8.31336 29.9136 8.33256 29.9904 8.37096 30.0864C9.04296 28.992 9.84936 27.9744 10.771 27.072C12.1534 25.6896 13.7662 24.5568 15.5134 23.7312C17.3566 22.8672 19.3342 22.3488 21.3886 22.1952C21.5422 22.176 21.6766 22.176 21.8302 22.176H21.8494C26.131 21.8688 30.1822 20.0256 33.2158 16.9728C34.483 15.7056 35.539 14.2848 36.3646 12.7296C36.1918 12.5376 35.9998 12.3456 35.8078 12.1536L32.7166 9.06239L36.499 11.2128C36.5374 11.232 36.5566 11.232 36.595 11.2512ZM35.539 11.8656C34.7326 13.44 33.6958 14.8992 32.4286 16.1664C30.1822 18.4128 27.379 19.9488 24.3262 20.64C23.9038 20.736 23.4814 20.8128 23.0398 20.8896C22.6366 20.9472 22.2334 20.9856 21.8302 21.024C21.6766 21.024 21.5038 21.0432 21.3502 21.0624C19.1614 21.216 17.0494 21.7728 15.0718 22.6944C13.1902 23.5776 11.4814 24.768 9.98376 26.2656C9.23496 27.0144 8.54376 27.84 7.92936 28.704C6.79656 24.7872 7.12296 20.544 8.87016 16.8384C9.10056 16.3584 9.35016 15.8976 9.61896 15.4368C10.3294 14.2464 11.1742 13.152 12.1726 12.1728C14.6686 9.65759 17.8366 8.04479 21.2734 7.48799C21.715 7.41119 22.1566 7.35359 22.5982 7.31519C23.059 7.27679 23.539 7.25759 24.019 7.25759C28.3198 7.25759 32.4094 8.88959 35.539 11.8656Z" fill="white"/>
<path d="M35.539 11.8656C34.7326 13.44 33.6958 14.8992 32.4286 16.1664C30.1822 18.4128 27.379 19.9488 24.3262 20.64C23.9038 20.736 23.4814 20.8128 23.0398 20.8896C22.6366 20.9472 22.2334 20.9856 21.8302 21.024C21.6766 21.024 21.5038 21.0432 21.3502 21.0624C19.1614 21.216 17.0494 21.7728 15.0718 22.6944C13.1902 23.5776 11.4814 24.768 9.9838 26.2656C9.235 27.0144 8.5438 27.84 7.9294 28.704C6.7966 24.7872 7.123 20.544 8.8702 16.8384C9.1006 16.3584 9.3502 15.8976 9.619 15.4368C10.3294 14.2464 11.1742 13.152 12.1726 12.1728C14.6686 9.65757 17.8366 8.04477 21.2734 7.48797C21.715 7.41117 22.1566 7.35357 22.5982 7.31517C23.059 7.27677 23.539 7.25757 24.019 7.25757C28.3198 7.25757 32.4094 8.88957 35.539 11.8656Z" fill="#196EC2"/>
</svg>
