<svg width="26" height="26" viewBox="0 0 26 26" fill="none" xmlns="http://www.w3.org/2000/svg">
<path d="M13 26C5.8201 26 0 20.1799 0 13C0 5.8201 5.8201 0 13 0C20.1799 0 26 5.8201 26 13C26 20.1799 20.1799 26 13 26ZM21.2615 18.1376V18.0011C21.2615 16.8025 21.2615 16.2552 20.4139 15.7703C20.1415 15.6159 19.8616 15.4749 19.5754 15.3478C19.0983 15.1307 18.7824 14.989 18.356 14.365C18.3051 14.2909 18.2548 14.2164 18.2052 14.1414C17.7567 13.4589 17.433 12.9675 16.2006 13.1625C13.7761 13.5473 13.5967 13.9737 13.4901 14.6939L13.4732 14.8122C13.3159 15.8652 13.2873 16.2188 13.7267 16.6803C15.3712 18.4054 16.3566 19.6495 16.6556 20.3775C16.8012 20.7324 17.1756 21.8075 16.9182 22.8709C18.4962 22.2424 19.9007 21.2452 21.0145 19.9628C21.1575 19.4766 21.2615 18.8708 21.2615 18.1376ZM13 2.3829C9.9879 2.3829 7.267 3.6387 5.3352 5.6537C5.5653 5.8136 5.7655 6.0385 5.9033 6.3479C6.1685 6.942 6.1685 7.5543 6.1685 8.0964C6.1685 8.5228 6.1685 8.9284 6.305 9.2209C6.4922 9.6213 7.3008 9.7929 8.0145 9.9411C8.2706 9.9957 8.5332 10.0503 8.7724 10.1166C9.4302 10.2986 9.9398 10.8901 10.3467 11.3646C10.5157 11.5609 10.7666 11.8508 10.8927 11.9236C10.9577 11.8768 11.167 11.6493 11.2697 11.2762C11.3503 10.9902 11.3269 10.738 11.2112 10.6002C10.4832 9.7422 10.5235 8.0912 10.7484 7.4815C11.102 6.5208 12.207 6.5923 13.0156 6.6443C13.3172 6.6638 13.6006 6.6833 13.8138 6.656C14.6224 6.5546 14.872 5.3235 15.0475 5.083C15.4271 4.563 16.5893 3.7791 17.3095 3.2955C15.9529 2.69229 14.4846 2.38135 13 2.3829Z" fill="#B3BAC5"/>
</svg>
