<svg width="48" height="48" viewBox="0 0 48 48" fill="none" xmlns="http://www.w3.org/2000/svg">
<path d="M26.5536 26.976H26.592C26.6112 26.976 26.6496 26.976 26.6688 26.976C26.6304 26.976 26.592 26.976 26.5536 26.976ZM26.5536 26.976H26.592C26.6112 26.976 26.6496 26.976 26.6688 26.976C26.6304 26.976 26.592 26.976 26.5536 26.976ZM26.5536 26.976H26.592C26.6112 26.976 26.6496 26.976 26.6688 26.976C26.6304 26.976 26.592 26.976 26.5536 26.976ZM26.5536 26.976H26.592C26.6112 26.976 26.6496 26.976 26.6688 26.976C26.6304 26.976 26.592 26.976 26.5536 26.976ZM24 0C10.752 0 0 10.752 0 24C0 37.248 10.752 48 24 48C37.248 48 48 37.248 48 24C48 10.752 37.248 0 24 0ZM6.1056 23.232C6.2016 20.8128 6.7776 18.4896 7.8144 16.32C8.064 15.8016 8.3328 15.3024 8.6208 14.8224C9.3696 13.5552 10.272 12.384 11.328 11.328C14.7072 7.9488 19.2 6.0864 24 6.0864C28.7616 6.0864 33.216 7.9296 36.5952 11.2512C36.5568 11.232 36.5376 11.2128 36.5376 11.2128L32.7552 9.0624L35.8464 12.1536C36.0384 12.3456 36.2304 12.5376 36.4032 12.7296C35.5776 14.2848 34.5216 15.7056 33.2544 16.9728C30.2016 20.0064 26.1696 21.8688 21.888 22.176H21.8688C21.7152 22.176 21.5808 22.1952 21.4272 22.1952C19.3728 22.3488 17.3952 22.848 15.552 23.7312C13.7856 24.5568 12.192 25.6704 10.8096 27.072C9.888 27.9936 9.0816 29.0112 8.4096 30.0864C8.3712 30.0096 8.3328 29.9136 8.3136 29.8176L7.8912 28.6656L7.2576 29.7216C7.2192 29.7984 7.1616 29.8752 7.1232 29.9712C6.336 27.8016 5.9904 25.536 6.1056 23.232ZM41.8944 24.768C41.7984 27.1872 41.2224 29.5104 40.1856 31.68C39.936 32.1984 39.6672 32.6976 39.3792 33.1776C38.6304 34.4448 37.7088 35.616 36.6528 36.672C33.2736 40.0512 28.7808 41.9136 23.9808 41.9136C19.2192 41.9136 14.7648 40.0704 11.3856 36.7488C11.424 36.768 11.4432 36.7872 11.4432 36.7872L15.2256 38.9376L12.1344 35.8464C11.9424 35.6544 11.7504 35.4624 11.5776 35.2704C12.4032 33.7152 13.4592 32.2944 14.7264 31.0272C17.7792 27.9744 21.8112 26.1312 26.0928 25.824C26.0928 25.824 26.0928 25.824 26.112 25.824C26.208 25.824 26.304 25.824 26.4 25.8048H26.5728H26.6688C28.6656 25.6512 30.6048 25.1328 32.4288 24.288C34.1952 23.4624 35.7888 22.3488 37.1712 20.9472C38.0928 20.0256 38.8992 19.008 39.5712 17.9328C39.6096 18.0096 39.648 18.1056 39.6672 18.2016L40.0896 19.3536L40.7232 18.2976C40.7616 18.2208 40.8192 18.144 40.8576 18.048C41.664 20.1984 42.0096 22.464 41.8944 24.768ZM26.592 26.976C26.6112 26.976 26.6496 26.976 26.6688 26.976C26.6304 26.976 26.592 26.976 26.5536 26.976H26.592ZM26.5536 26.976H26.592C26.6112 26.976 26.6496 26.976 26.6688 26.976C26.6304 26.976 26.592 26.976 26.5536 26.976ZM26.5536 26.976H26.592C26.6112 26.976 26.6496 26.976 26.6688 26.976C26.6304 26.976 26.592 26.976 26.5536 26.976Z" fill="#F2F2F2"/>
<path d="M42.2205 10.6945C41.0493 11.5777 39.7437 11.9233 38.3421 11.7697C37.4397 11.6545 36.7869 11.3665 36.5949 11.2513C36.5565 11.2321 36.5373 11.2129 36.5373 11.2129L32.7549 9.0625L35.8461 12.1537C36.0381 12.3457 36.2301 12.5377 36.4029 12.7297C37.7853 14.2465 38.8605 15.9937 39.6093 17.8945C39.6477 17.9713 39.6861 18.0673 39.7053 18.1633L40.1277 19.3153L40.7613 18.2593C40.7997 18.1825 40.8573 18.1057 40.8957 18.0097C42.1053 15.9169 42.8541 13.6321 43.1421 11.2129L43.3149 9.8497L42.2205 10.6945ZM40.3389 16.6081C39.7437 15.2833 38.9949 14.0545 38.0925 12.9025C38.1117 12.9025 38.1309 12.9025 38.1501 12.9217C39.0909 13.0369 40.3965 13.0177 41.7981 12.3265C41.5101 13.8241 41.0109 15.2641 40.3389 16.6081Z" fill="white"/>
<path d="M41.7984 12.3265C41.5104 13.8241 41.0112 15.2641 40.3392 16.6081C39.744 15.2833 38.9952 14.0545 38.0928 12.9025C38.112 12.9025 38.1312 12.9025 38.1696 12.9025C39.0912 13.0369 40.3968 13.0177 41.7984 12.3265Z" fill="#DEDEDE"/>
<path d="M12.154 35.8463C11.962 35.6543 11.77 35.4623 11.5972 35.2703C10.2148 33.7535 9.13962 32.0063 8.39082 30.1055C8.35242 30.0287 8.31402 29.9327 8.29482 29.8367L7.87242 28.6847L7.23882 29.7407C7.20042 29.8175 7.14282 29.8943 7.10442 29.9903C5.89482 32.0831 5.14602 34.3679 4.83882 36.7871L4.66602 38.1503L5.76042 37.3247C6.93162 36.4415 8.23722 36.0959 9.63882 36.2495C10.5412 36.3647 11.194 36.6527 11.386 36.7487C11.4244 36.7679 11.4436 36.7871 11.4436 36.7871L15.226 38.9375L12.154 35.8463ZM9.85001 35.0783C8.90921 34.9631 7.60362 34.9823 6.20202 35.6735C6.49002 34.1759 6.98922 32.7359 7.66122 31.3919C8.25642 32.7167 9.00521 33.9455 9.90761 35.0975C9.90761 35.0783 9.86921 35.0783 9.85001 35.0783Z" fill="white"/>
<path d="M7.66102 31.3918C8.25622 32.7166 9.00502 33.9454 9.90742 35.0974C9.88822 35.0974 9.86902 35.0974 9.83062 35.0974C8.88982 34.9822 7.58422 35.0014 6.18262 35.6926C6.48982 34.1758 6.98902 32.7358 7.66102 31.3918Z" fill="#DFDFDF"/>
<path d="M26.5536 26.9759H26.592C26.6112 26.9759 26.6496 26.9759 26.6688 26.9759C26.6304 26.9759 26.592 26.9759 26.5536 26.9759ZM40.8 17.7599L40.3776 16.6079L39.744 17.6639C39.7056 17.7407 39.648 17.8175 39.5904 17.9135C39.6288 17.9903 39.6672 18.0863 39.6864 18.1823L40.1088 19.3343L40.7424 18.2783C40.7808 18.2015 40.8384 18.1247 40.8768 18.0287C40.8768 17.9327 40.8384 17.8559 40.8 17.7599ZM26.5536 26.9759H26.592C26.6112 26.9759 26.6496 26.9759 26.6688 26.9759C26.6304 26.9759 26.592 26.9759 26.5536 26.9759ZM12.1536 35.8463C11.9616 35.6543 11.7696 35.4623 11.5968 35.2703C11.4624 35.5199 11.3472 35.7695 11.2128 36.0191L11.04 36.3839L11.328 36.6719C11.3472 36.6911 11.3664 36.7103 11.3856 36.7295C11.424 36.7487 11.4432 36.7679 11.4432 36.7679L15.2256 38.9183L12.1536 35.8463ZM26.5536 26.9759H26.592C26.6112 26.9759 26.6496 26.9759 26.6688 26.9759C26.6304 26.9759 26.592 26.9759 26.5536 26.9759ZM26.5536 26.9759H26.592C26.6112 26.9759 26.6496 26.9759 26.6688 26.9759C26.6304 26.9759 26.592 26.9759 26.5536 26.9759Z" fill="white"/>
<path d="M40.8958 18.0288C40.8574 18.1056 40.7998 18.1824 40.7614 18.2784L40.1278 19.3344L39.7054 18.1824C39.667 18.0864 39.6478 18.0096 39.6094 17.9136C38.9374 19.008 38.131 20.0256 37.2094 20.928C35.827 22.3104 34.2142 23.4432 32.467 24.2688C30.643 25.1136 28.723 25.632 26.707 25.7856H26.611H26.4382C26.3422 25.7856 26.2462 25.8048 26.1502 25.8048C26.1502 25.8048 26.1502 25.8048 26.131 25.8048C21.8494 26.112 17.7982 27.9552 14.7646 31.008C13.4974 32.2752 12.4414 33.696 11.6158 35.2512C11.7886 35.4432 11.9806 35.6352 12.1726 35.8272L15.2638 38.9184L11.4814 36.768C11.4814 36.768 11.4622 36.7488 11.4238 36.7296C14.803 40.0704 19.2766 41.9136 24.019 41.8944C28.7998 41.8944 33.2926 40.032 36.691 36.6528C37.747 35.5968 38.6494 34.4256 39.4174 33.1584C39.7054 32.6784 39.9742 32.16 40.2238 31.6608C41.2606 29.4912 41.8174 27.168 41.9326 24.7488C42.0094 22.464 41.6638 20.1984 40.8958 18.0288ZM39.1294 31.1808C38.899 31.6608 38.6494 32.1216 38.3806 32.5824C37.6702 33.7728 36.8254 34.8672 35.827 35.8464C33.3118 38.3616 30.163 39.9744 26.7262 40.5312C26.2846 40.608 25.843 40.6656 25.4014 40.704C24.9406 40.7424 24.4606 40.7616 23.9806 40.7616C19.6414 40.7616 15.571 39.1296 12.4414 36.1536C13.2478 34.5792 14.2846 33.12 15.5518 31.872C17.7982 29.6256 20.6014 28.0896 23.6542 27.3792C24.0766 27.2832 24.499 27.2064 24.9406 27.1296C25.3438 27.072 25.747 27.0336 26.1502 26.9952C26.1886 26.9952 26.227 26.9952 26.2654 26.9952C26.3422 26.9952 26.4382 26.976 26.515 26.976C26.5534 26.976 26.5918 26.976 26.6302 26.976L27.1678 26.9376C28.1662 26.8416 29.1454 26.6496 30.1054 26.3808C31.0654 26.112 32.0062 25.7664 32.9086 25.344C34.7902 24.4608 36.499 23.2704 37.9966 21.7728C38.7454 21.024 39.4366 20.1984 40.051 19.3344C41.2222 23.232 40.8766 27.4944 39.1294 31.1808Z" fill="white"/>
<path d="M39.1294 31.1809C38.899 31.6609 38.6494 32.1217 38.3806 32.5825C37.6702 33.7729 36.8254 34.8673 35.827 35.8465C33.3118 38.3617 30.163 39.9745 26.7262 40.5313C26.2846 40.6081 25.843 40.6657 25.4014 40.7041C24.9406 40.7425 24.4606 40.7617 23.9806 40.7617C19.6414 40.7617 15.571 39.1297 12.4414 36.1537C13.2478 34.5793 14.2846 33.1201 15.5518 31.8721C17.7982 29.6257 20.6014 28.0897 23.6542 27.3793C24.0766 27.2833 24.499 27.2065 24.9406 27.1297C25.3438 27.0721 25.747 27.0337 26.1502 26.9953C26.1886 26.9953 26.227 26.9953 26.2654 26.9953C26.3422 26.9953 26.4382 26.9761 26.515 26.9761H26.5534C26.5726 26.9761 26.611 26.9761 26.6302 26.9761L27.1678 26.9377C28.1662 26.8417 29.1454 26.6497 30.1054 26.3809C31.0654 26.1121 32.0062 25.7665 32.9086 25.3441C34.7902 24.4609 36.499 23.2705 37.9966 21.7729C38.7454 21.0241 39.4366 20.1985 40.051 19.3345C41.2222 23.2321 40.8766 27.4945 39.1294 31.1809Z" fill="#DEDEDE"/>
<path d="M36.6533 11.3279C36.6341 11.3087 36.6149 11.2895 36.5957 11.2703C36.5573 11.2511 36.5381 11.2319 36.5381 11.2319L32.7557 9.08154L35.8469 12.1727C36.0389 12.3647 36.2309 12.5567 36.4037 12.7487C36.5381 12.4991 36.6725 12.2495 36.7877 11.9999L36.9605 11.6351L36.6533 11.3279ZM8.29489 29.8367L7.87249 28.6847L7.23889 29.7407C7.20049 29.8175 7.14289 29.8944 7.10449 29.9904C7.14289 30.0864 7.16209 30.1632 7.20049 30.2592L7.62289 31.4112L8.25649 30.336C8.31409 30.2592 8.35249 30.1824 8.41009 30.1056C8.37169 30.0096 8.33329 29.9135 8.29489 29.8367Z" fill="white"/>
<path d="M36.5955 11.2513C33.2163 7.91045 28.7426 6.06725 24.0002 6.08645C19.2194 6.08645 14.7266 7.94885 11.3282 11.3281C10.2722 12.3841 9.36985 13.5553 8.60185 14.8225C8.31385 15.3025 8.04505 15.8209 7.79545 16.3201C6.75865 18.4897 6.18265 20.8129 6.08665 23.2321C5.99065 25.5361 6.31705 27.8017 7.08505 29.9713C7.12345 29.8945 7.18105 29.8177 7.21945 29.7217L7.85305 28.6657L8.27545 29.8177C8.31385 29.9137 8.33305 29.9905 8.37145 30.0865C9.04345 28.9921 9.84985 27.9745 10.7714 27.0721C12.1538 25.6897 13.7666 24.5569 15.5138 23.7313C17.357 22.8673 19.3346 22.3489 21.389 22.1953C21.5426 22.1761 21.677 22.1761 21.8306 22.1761H21.8498C26.1314 21.8689 30.1826 20.0257 33.2162 16.9729C34.4834 15.7057 35.5394 14.2849 36.365 12.7297C36.1922 12.5377 36.0002 12.3457 35.8082 12.1537L32.717 9.06245L36.4995 11.2129C36.5379 11.2321 36.5571 11.2321 36.5955 11.2513ZM35.5395 11.8657C34.7331 13.4401 33.6962 14.8993 32.429 16.1665C30.1826 18.4129 27.3794 19.9489 24.3266 20.6401C23.9042 20.7361 23.4818 20.8129 23.0402 20.8897C22.637 20.9473 22.2338 20.9857 21.8306 21.0241C21.677 21.0241 21.5042 21.0433 21.3506 21.0625C19.1618 21.2161 17.0498 21.7729 15.0722 22.6945C13.1906 23.5777 11.4818 24.7681 9.98425 26.2657C9.23545 27.0145 8.54425 27.8401 7.92985 28.7041C6.79705 24.7873 7.12345 20.5441 8.87065 16.8385C9.10105 16.3585 9.35065 15.8977 9.61945 15.4369C10.3298 14.2465 11.1746 13.1521 12.173 12.1729C14.669 9.65765 17.837 8.04485 21.2738 7.48805C21.7154 7.41125 22.157 7.35365 22.5986 7.31525C23.0594 7.27685 23.5394 7.25765 24.0194 7.25765C28.3202 7.25765 32.4099 8.88965 35.5395 11.8657Z" fill="white"/>
<path d="M35.539 11.8657C34.7326 13.4401 33.6958 14.8993 32.4286 16.1665C30.1822 18.4129 27.379 19.9489 24.3262 20.6401C23.9038 20.7361 23.4814 20.8129 23.0398 20.8897C22.6366 20.9473 22.2334 20.9857 21.8302 21.0241C21.6766 21.0241 21.5038 21.0433 21.3502 21.0625C19.1614 21.2161 17.0494 21.7729 15.0718 22.6945C13.1902 23.5777 11.4814 24.7681 9.9838 26.2657C9.235 27.0145 8.5438 27.8401 7.9294 28.7041C6.7966 24.7873 7.123 20.5441 8.8702 16.8385C9.1006 16.3585 9.3502 15.8977 9.619 15.4369C10.3294 14.2465 11.1742 13.1521 12.1726 12.1729C14.6686 9.65769 17.8366 8.04489 21.2734 7.48809C21.715 7.41129 22.1566 7.35369 22.5982 7.31529C23.059 7.27689 23.539 7.25769 24.019 7.25769C28.3198 7.25769 32.4094 8.88969 35.539 11.8657Z" fill="#DEDEDE"/>
</svg>

