<svg width="20" height="20" viewBox="0 0 20 20" fill="none" xmlns="http://www.w3.org/2000/svg">
<path d="M13 26C5.8201 26 0 20.1799 0 13C0 5.8201 5.8201 0 13 0C20.1799 0 26 5.8201 26 13C26 20.1799 20.1799 26 13 26ZM8.957 14.521L8.9739 14.5119L10.1049 18.2429C10.2505 18.6472 10.4507 18.72 10.6938 18.6862C10.9382 18.6537 11.0669 18.5224 11.2268 18.369L12.7712 16.8766L16.0862 19.331C16.692 19.6651 17.1275 19.4922 17.2783 18.7694L19.4324 8.6008C19.6703 7.6544 19.2543 7.2748 18.5198 7.5764L5.8669 12.4644C5.0037 12.8102 5.0089 13.2938 5.7109 13.5083L8.957 14.5223V14.521Z" fill="#B3BAC5"/>
</svg>
