<svg width="20" height="20" viewBox="0 0 20 20" fill="none" xmlns="http://www.w3.org/2000/svg">
<circle cx="13" cy="13" r="13" fill="#B3BAC5"/>
<g clip-path="url(#clip0_77:789)">
<path d="M19.6052 8.87638C19.1089 9.09588 18.5827 9.24003 18.0439 9.30408C18.6118 8.96441 19.0369 8.42984 19.2399 7.79998C18.7069 8.11718 18.1225 8.33948 17.5135 8.45973C17.1043 8.022 16.5621 7.7317 15.971 7.63396C15.3799 7.53621 14.773 7.6365 14.2448 7.91922C13.7165 8.20195 13.2965 8.65127 13.05 9.19734C12.8034 9.74341 12.7442 10.3556 12.8816 10.9388C11.8007 10.8847 10.7433 10.6038 9.77799 10.1144C8.81271 9.62505 7.96113 8.93816 7.27855 8.09833C7.03694 8.51332 6.90997 8.98507 6.91065 9.46528C6.91065 10.4078 7.39035 11.2404 8.11965 11.7279C7.68806 11.7143 7.26596 11.5978 6.88855 11.388V11.4218C6.88868 12.0495 7.10589 12.6578 7.50335 13.1437C7.90081 13.6295 8.45406 13.9629 9.0693 14.0874C8.66865 14.196 8.24855 14.212 7.8408 14.1342C8.01426 14.6745 8.35236 15.1471 8.80774 15.4856C9.26312 15.8242 9.81298 16.0119 10.3804 16.0225C9.81646 16.4653 9.17082 16.7927 8.48032 16.9859C7.78983 17.1791 7.06803 17.2342 6.3562 17.1483C7.5988 17.9474 9.04531 18.3717 10.5227 18.3703C15.5232 18.3703 18.2577 14.2278 18.2577 10.6353C18.2577 10.5183 18.2545 10.4 18.2493 10.2843C18.7815 9.89959 19.2409 9.42304 19.6058 8.87703L19.6052 8.87638Z" fill="white"/>
</g>
<defs>
<clipPath id="clip0_77:789">
<rect width="15.6" height="15.6" fill="white" transform="translate(5.19995 5.19995)"/>
</clipPath>
</defs>
</svg>
